<?xml version="1.0" encoding="utf-8"?>
<!-- Generator: Adobe Illustrator 27.7.0, SVG Export Plug-In . SVG Version: 6.00 Build 0)  -->
<svg version="1.1" id="a" xmlns="http://www.w3.org/2000/svg" xmlns:xlink="http://www.w3.org/1999/xlink" x="0px" y="0px"
	 viewBox="0 0 762.5 641.1" style="enable-background:new 0 0 762.5 641.1;" xml:space="preserve">
<style type="text/css">
	.st0{fill:#FF8D6E;}
	.st1{fill:#CBDDE0;}
	.st2{fill:#FFCFBF;}
	.st3{fill:#004952;}
	.st4{fill:none;stroke:#004952;stroke-width:2;stroke-linecap:round;stroke-linejoin:round;}
	.st5{fill:none;stroke:#FF8D6E;stroke-width:2;stroke-linecap:round;stroke-linejoin:round;}
</style>
<path class="st0" d="M152.8,379.2l12-4.5c-9.4-33.2-17.4-52.5-17.4-83.5c0-32.6-10-48.4-22-53.9l-6.9-2.9
	c-4.9,7.4-11.3,9.8-17.4,10.9l-4.3,0.8c-0.3-2.6-0.5-4.1-0.5-4.1c-25.6,0-38.2-6.5-45.5-13.8l-4.1,6.6C24.3,234.4,6,306.4,2.5,321.5
	c-2.5,10.7-5.3,30.1,20.6,49.5c4,3,17.8,14.1,33.6,24.6c0,0,3.2-19,10.2-26.2c-9.7-6.4-24.2-18.3-32.5-30.7l0.7-9.5
	c2.9-14.4,14-31.6,20.2-48.6l0,0l3.5,9.6c3.8,13.8,4.5,28.1-3.7,41.6c-1.3,2.2-2.7,4.3-4,6.3l0,0c19.8,10.6,65.5,16.2,90.1-4.9
	C141.4,333.2,147,342.3,152.8,379.2L152.8,379.2z"/>
<path class="st1" d="M141.7,333l-0.3,0.2c-24.6,21.1-70.3,15.5-90.1,4.9c0,0-4.6,4.7-8.9,10.5c11.5,12.5,26.7,22.9,32.3,25.2
	c8.1,3.3,16.3,2.2,20.5,0.9c3.6-1.1,6.2,2.7,1,5.5c-5.1,2.9-8.8,2.9-15,2.9c0,0,10.3,5.8,21.7,6.6c0,0,6.4,5.5,5.9,15.9
	s-12.2,10-12.2,10c-19.4-4.5-48.3-25.4-63.7-37.2c-0.4,4.3-0.5,7.5-0.5,7.5c0,38.8,20.2,47.7,13.3,159.4h105.7
	C163.8,457.8,155.4,361.6,141.7,333L141.7,333z"/>
<path class="st2" d="M657.4,166.1c3.8-9.1,3.7-17.1,3.7-18c1.9-19.6-2.5-36.4-12.5-47.4c-7.2-8-16.9-12.2-28-12.2
	c-23.2,0-33.2,19.3-37.6,35.4c-0.5,1.8-1.1,3.9-1.8,6.1c-4.1,13.3-10.2,33.4,1,48.1c1.6,2.1,3.6,4.1,5.8,5.8v34.5
	c0.4,16.3,2.4,35.1,15,35.1c6.8,0,11-3.6,13.1-11.1c1.8-6.4,1.8-14.9,1.8-23.2v-0.1c2.7,0.6,5.4,0.9,8.2,0.9c6.8,0,13.6-1.8,20-5.2
	C672.6,200.1,659.4,170.1,657.4,166.1L657.4,166.1z M608.4,175.4c-21.9,0-26.8-18.3-20.9-34.9c6-16.8,5.2-32.6,23.4-32.6
	s25.9,17.5,25.9,36S627.7,175.4,608.4,175.4L608.4,175.4z"/>
<path class="st2" d="M745.1,157c-9.3,3.2-19.7,1.2-27.4-1.3l-1.8,76.2c-8.2-7.7-39-37.3-48.8-42.9c-6.3-3.6-34.2-12.3-43.9-11.6
	s-37.4,12.9-40,14.4c-16.1,9-21.3,23.5-25.4,40.2c-3.4,13.9-10.5,74.6-17.6,113.3l0,0c10.1,4.6,22.8,5.6,32.2,4.7l0,0
	c1-7.7,2.1-15.4,3.4-24c-3.8,0.2-6-3.7,0.5-14.6l2,0l0,0l98-1c-18.5-37.3-12.3-48.1-7-62.9c0,0,15.1,10.2,37.9,25.8
	c27.2,18.6,40.7-12.2,40.7-33.2C747.9,224.2,746.1,181.1,745.1,157L745.1,157z"/>
<polygon class="st2" points="717.7,155.8 717.7,155.8 717.7,155.8 "/>
<polygon class="st2" points="745.1,157 745.1,157 745.1,157 "/>
<circle class="st3" cx="617.3" cy="137.8" r="1.5"/>
<circle class="st3" cx="597.5" cy="137.8" r="1.5"/>
<path class="st4" d="M611,107.9c-18.2,0-17.4,15.8-23.4,32.6c-6,16.6-1,34.9,20.9,34.9c19.2,0,28.5-12.9,28.5-31.5
	S628.3,107.9,611,107.9L611,107.9z"/>
<path class="st4" d="M607.3,133c0,7.3-2.9,13.2-5.1,15.4c0,0,6.9-0.5,9.2,2.6"/>
<path class="st4" d="M608.4,175.4c48.4,0,51.7-27.4,51.7-27.4s0.7,16.5-11,29.4c-19.5,21.4-53.3,16.7-66,0.1s-2.5-40.4,1-53.3
	c4.6-17.2,14.8-34.7,36.6-34.7c26.7,0,42.8,24.9,39.5,58.6"/>
<path class="st4" d="M589.1,183.4c0,26.4,29.9,45.2,56.5,30.5c27.8-15.3,10.8-47.7,10.8-47.7"/>
<path class="st4" d="M589.1,183.4v35c0.4,17.6,2.8,34.1,14,34.1c14.2,0,13.9-17.3,13.9-34.5"/>
<path class="st4" d="M589.2,120.8c3.1,1.6,8.8,2.7,16.6,3.5l2.9-6.8l2.3,6.8c6.7-0.1,15.7-1,23.1-4.3"/>
<path class="st4" d="M667.1,189.1c9.4,6.3,40.6,35.3,48.8,42.9l2-87.5c-0.1-9.6-4.7-13.2-4.6-16.2c0.2-5.7,7.7-8.6,12.6-8.6
	s3.3,7.1-2.8,8.9"/>
<path class="st4" d="M744.3,140.3c0,0,3.6,77.3,3.6,99.8c0,21-13.5,51.9-40.7,33.2c-22.8-15.6-33.8-22.9-33.8-22.9"/>
<path class="st4" d="M582.8,199.8c0,21.7-12.8,26.7-12.8,42.2c0,25.9,21.3,13,5.8,69.5l100.5-1c-21.9-44.1-9.3-51.1-4.2-71.6"/>
<path class="st4" d="M574.2,316.6c-6.7,12.2,5.5,11.9,10,3.4c0,0,7.8,12.8,14.9,0.5c0,0,10,12.8,16.1-0.7c0,0,10.9,13.7,16.6-0.1
	c0,0,12,13,14.8-0.3c0,0,13.1,13.4,13.8-0.2c0,0,15.9,13.3,16.9-1.8"/>
<line class="st4" x1="718" y1="121.9" x2="714" y2="93.5"/>
<path class="st4" d="M734.7,92l-3.2,28.5c1.7-2.2,9.6-3.1,7.8,6.5c-1.9,9.9-6.4,8.6-6.4,8.6"/>
<polyline class="st4" points="721.4,92.7 724.7,115.1 727,92 "/>
<path class="st4" d="M740.8,118.9c1.7-1,6.7-0.7,6,8.4c-0.6,8.6-6.8,8.3-6.8,8.3"/>
<path class="st4" d="M707.5,151.8c5.8,2.5,26.3,11.9,41.9,3.3"/>
<path class="st4" d="M574.5,330.4C557.4,425.9,561,524.8,561,590.2h32.1c24.8-133.1,30.5-159.9,33.2-174c3.8-20,6.6-32.2,3.1-53.5
	c0,0,16.7,112,32.7,227.5H694c-0.4-187.1,24-207.9-10.9-266.1"/>
<path class="st4" d="M583.2,191.8c-16.4,8.5-21.3,23.5-25.4,40.2c-4.1,16.7-13.7,101.5-21.8,133.8c-2.1,8.4-6.4,17.6-9.2,22.5
	c-3.2,5.5,4.4,5.2,8.2-0.4c1.9-2.8,4.9-6.9,7.1-12.7c0,0,0.1,13.1-4.4,28.5"/>
<path class="st4" d="M553.7,384.5c-0.1,6.1-2.7,23.9-3.8,28.4"/>
<path class="st4" d="M547.7,384.2c-0.3,5.8-2.8,21.2-3.5,25.8"/>
<path class="st4" d="M560.9,381.3c-0.3,5.8-2.8,21.2-3.5,25.8"/>
<path class="st4" d="M532.4,340.4c14.2,12.2,42.5,11.3,50.8,7.3"/>
<line class="st4" x1="587" y1="621.2" x2="588" y2="594.9"/>
<path class="st4" d="M524.6,620c0,0-2.8,0.4-4.8,2.3"/>
<path class="st4" d="M564.1,595.9c0,13-8.3,15.7-21.3,19.9"/>
<path class="st4" d="M528.5,619.3c0.8,2.3,2,6,2.1,7h-12.1c-1.7,0-3.4,0.9-4.3,2.4c-1.1,2-1.5,5.6-1.7,8.2c-0.1,1.7,1.3,3.2,3,3.2
	H590c1.7,0,3-1.3,3-3v-7.8c0-1.7-1.3-3-3-3h-48.6c0,0-2.3-7.5-4-11.2c-0.4-0.8-1.3-1.3-2.2-1.1c-1.5,0.3-3.7,0.8-5.5,2
	C528.5,616.7,528.1,618.1,528.5,619.3L528.5,619.3z"/>
<path class="st4" d="M579.8,609.5c-3.8,2.4-4.5,6.2-4.5,6.2"/>
<line class="st4" x1="669" y1="621.2" x2="668" y2="594.9"/>
<path class="st4" d="M731.3,620c0,0,2.8,0.4,4.8,2.3"/>
<path class="st4" d="M691.9,595.9c0,13,8.3,15.7,21.3,19.9"/>
<path class="st4" d="M727.5,619.3c-0.8,2.3-2,6-2.1,7h12.1c1.7,0,3.4,0.9,4.3,2.4c1.1,2,1.5,5.6,1.7,8.2c0.1,1.7-1.3,3.2-3,3.2H666
	c-1.7,0-3-1.3-3-3v-7.8c0-1.7,1.3-3,3-3h48.6c0,0,2.3-7.5,4-11.2c0.4-0.8,1.3-1.3,2.2-1.1c1.5,0.3,3.7,0.8,5.5,2
	C727.5,616.7,727.9,618.1,727.5,619.3L727.5,619.3z"/>
<path class="st4" d="M676.2,609.5c3.8,2.4,4.5,6.2,4.5,6.2"/>
<path class="st4" d="M667.1,335.7c0,12.6,10.3,31,43.4,31"/>
<path class="st4" d="M618.8,158.6c-3,4.6-17.3,9.5-24.1,0"/>
<line class="st5" x1="637.3" y1="29" x2="630.3" y2="73.4"/>
<line class="st5" x1="616.6" y1="70.6" x2="605.4" y2="37.1"/>
<line class="st5" x1="644" y1="76.2" x2="664.9" y2="47.7"/>
<path class="st2" d="M333.5,578.3c-11.5,0.6-25.7,2.3-42.3,0.2c0.1,2.3,0.3,4.7,0.5,7.2c0.8,11.2-5.9,17.1-13.5,21
	c-5.6,2.8-16.8,4-27.1,6.5l0,0c3.5,3.3,6.5,8.9,7.8,12.7c0.6,1.7,0.9,3.8,1.2,5.6l0,0c21.8,0.1,53.5,0.2,69.8-0.8l0,0
	c0.5-12,1.9-33.5,2.8-41.8C332.9,586.2,333.2,582.6,333.5,578.3L333.5,578.3L333.5,578.3z M313.9,607.5c-4.9,0-8.9-4-8.9-8.9
	s4-8.9,8.9-8.9s8.9,4,8.9,8.9S318.9,607.5,313.9,607.5z"/>
<path class="st2" d="M390.5,578.3c0.3,4.3,0.6,7.9,0.9,10.6c0.9,8.3,2.2,29.8,2.8,41.8l0,0c16.4,0.9,48,0.9,69.8,0.8l0,0
	c0.2-1.8,0.6-3.9,1.2-5.6c1.2-3.8,4.3-9.4,7.8-12.7l0,0c-10.3-2.5-21.5-3.7-27.1-6.5c-7.6-3.8-14.4-9.7-13.5-21
	c0.2-2.4,0.3-4.8,0.5-7.2C416.1,580.6,402,578.9,390.5,578.3L390.5,578.3L390.5,578.3z M401.1,598.6c0-4.9,4-8.9,8.9-8.9
	s8.9,4,8.9,8.9s-4,8.9-8.9,8.9S401.1,603.5,401.1,598.6z"/>
<polygon class="st2" points="480.9,91.4 480.9,91.4 480.9,91.4 "/>
<polygon class="st2" points="447.5,86.4 447.5,86.4 447.5,86.4 "/>
<path class="st2" d="M402.5,227.6c0,0,2.3-1.8,4.9-4c46.4-40.5,65-92.5,73.5-132.2c-14.7,2.8-26.2-1.1-33.4-5
	c-41.1,124.5-126.3,102.3-139.8,93.3c-2.9-1.9-7-2.6-7-2.6c-59.3-6.3-66.6,96.6-73,182.3l0,0c8.8,3.9,23.4,6.5,36.8,6.6l0,0
	c5.4-40.7,23.2-90.6,29.8-123.3c0,0.1-0.5,15.8-1.1,27.1c-1.6,31.5-4.5,75.4-4.5,75.4c19-4.4,132.9-5.3,132.9-5.3
	C419.6,335.8,407.8,264.1,402.5,227.6L402.5,227.6L402.5,227.6z M378.8,242.8c-11,0-14.7-11.9-15.1-20.1l-0.3-5.8l0.3,0
	c6.4-0.3,15.1-0.2,25.3-2.2C389,214.7,394.6,242.8,378.8,242.8L378.8,242.8z"/>
<path class="st4" d="M322.5,122.2c0,0-11-8-11.4,4s5.7,15.7,10.7,11.7l-7.5,51.7"/>
<circle class="st4" cx="340.1" cy="123.2" r="10.2"/>
<circle class="st4" cx="373.1" cy="120.5" r="10.2"/>
<path class="st4" d="M349.7,119.5c0,0,5.9-5,13.2-0.6"/>
<circle class="st3" cx="340.1" cy="123.2" r="1.5"/>
<circle class="st3" cx="373.1" cy="120.5" r="1.5"/>
<path class="st4" d="M356,113c0,14.4,2.8,15.9,7.3,20.4c0,0-3.8,1.1-5.5,4.4"/>
<path class="st4" d="M324.8,117.7c2.4-2.7,6.6-6.1,6.5-13.9c9.3,2.3,22,3.6,30.6-9.3c0,0,8.4,4.1,8.4,11"/>
<path class="st4" d="M377,105.5c10.7,0,15-11,10.2-22.7c-6.9-16.8-57-40.6-73.1,7.3c0,0-10.2-7.5-16,3.9c-5.9,11.4,6,24.9,10,26.4"
	/>
<line class="st4" x1="361.6" y1="172.5" x2="365.6" y2="188.5"/>
<path class="st4" d="M316.8,127.6c2.9-1.1,5.7,4.1,4.1,5.9"/>
<path class="st4" d="M307.7,179.7C321.4,189,409.9,211.8,450,78.5c3.5-12.9-5.2-32.8-1.6-36.1c3.6-3.3,8.5,17.7,8.5,17.7l5.7-29.7"
	/>
<path class="st4" d="M489.6,35.7c-4.7,22-5.2,120.7-82.2,187.9"/>
<line class="st4" x1="466.4" y1="45.6" x2="470.8" y2="23.3"/>
<line class="st4" x1="473.7" y1="43.8" x2="478.7" y2="18.6"/>
<line class="st4" x1="480" y1="47.2" x2="484.7" y2="23.3"/>
<path class="st4" d="M439.5,81.1c4.1,3.1,21.8,17,48.3,8.5"/>
<path class="st4" d="M400.7,214.7c3.7,28.1,18.7,120.5,20.9,125.3c0,0-113.9,0.9-132.9,5.3c0,0,2.8-44,4.5-75.4"/>
<path class="st4" d="M363.5,216.9c6.4-0.3,15.1-0.2,25.3-2.2c0,0,5.6,28.1-10.2,28.1c-11,0-14.7-11.9-15.1-20.1"/>
<path class="st4" d="M281.8,336.3c9.7-1.9,121.5-6,144.4-6.3"/>
<path class="st4" d="M300.7,177.1c-72.3-7.6-67.3,147-77.6,234.8"/>
<path class="st4" d="M296.7,223c0,33.2-34.8,115.1-33.8,166.7c0.2,8.6,0.9,18.6,0.7,24.2c-0.1,4.2-9.7,0.1-9.7-17.6
	c0,0-4.7,12.2-5.9,28.3"/>
<path class="st4" d="M238.8,401c-2,8.2-3.9,25.3-4.4,30"/>
<path class="st4" d="M245.4,402.9c-1.7,5.5-3.8,22.9-4.7,27.4"/>
<path class="st4" d="M233.1,395.5c-1.3,5.5-3.8,22.9-4.7,27.4"/>
<path class="st4" d="M270.5,366c-19,1-43-4-49.4-10.7"/>
<path class="st4" d="M364.8,366c-4.1,40.6-6.8,71.1-6.8,71.1h-79.7c0,0,5.2-42.7,13.7-85.4"/>
<path class="st4" d="M419.7,348.2c7.5,25.3,17.9,61.7,24.4,87.8l-74.8,1.1l-2.7-26.6"/>
<path class="st4" d="M318.1,350.2c0,18.8-12.3,34.6-41.6,34.6"/>
<path class="st4" d="M404.4,347.4c0,14.1,5.8,33.9,33.2,28.1"/>
<path class="st4" d="M311.1,83.6c-3.7-11.5,3-18.4,3-18.4"/>
<path class="st4" d="M306.7,82.2c-6-4.5-13.4-1.3-13.4-1.3"/>
<path class="st4" d="M287.8,445.3c-0.5,11.4,1.2,28.3,1.6,51c0.4,23.5-0.3,53.2,2.3,89.4c0.8,11.2-5.9,17.1-13.5,21
	c-9.6,4.9-35.6,4.8-45.3,15.1c-2.2,2.3-3.5,5.3-4.3,8.2c-1.4,5.2,2.6,10.3,7.9,10.1h87.3c3.2-0.1,5.7-2.6,5.9-5.8
	c0.4-10.8,1.9-36.2,2.9-45.4c1.7-15.5,3.4-57.7,6.6-92.7c2.3-25,6.2-46.2,6.9-51.4"/>
<path class="st4" d="M339.7,578.1c-13.7,0-31.7,3.5-53.9-0.4"/>
<path class="st4" d="M280.2,539.2c11.5,0.4,41.3,4.1,64.1,0"/>
<path class="st4" d="M236.7,631.3c0,0,75.6,1,97.8-0.8"/>
<path class="st4" d="M258.9,625.9c-1.6-5.4-7-14-12-15.4"/>
<circle class="st4" cx="313.9" cy="598.6" r="8.9"/>
<line class="st4" x1="299.1" y1="545.2" x2="300.1" y2="570.9"/>
<line class="st4" x1="311.2" y1="545.2" x2="311.2" y2="572.9"/>
<line class="st4" x1="323.9" y1="547.2" x2="321.9" y2="569.9"/>
<path class="st4" d="M305,496.3c8.9-7.6,17.8,0,17.8,0"/>
<path class="st4" d="M435.4,445.3c0.5,11.4-1,28.3-1.1,51c-0.2,23.5,0.8,53.2-1.8,89.4c-0.8,11.2,5.9,17.1,13.5,21
	c9.6,4.9,35.6,4.8,45.3,15.1c2.2,2.3,3.5,5.3,4.3,8.2c1.5,5.2-2.5,10.3-7.9,10.1h-87.9c-3.2-0.1-5.7-2.6-5.9-5.8
	c-0.4-10.8-1.4-36.2-2.4-45.4c-1.7-15.5-3.4-57.7-6.6-92.7c-2.3-25-6.2-46.2-6.9-51.4"/>
<path class="st4" d="M384.4,578.1c13.7,0,31.7,3.5,53.9-0.4"/>
<path class="st4" d="M444,539.2c-11.5,0.4-41.3,4.1-64.1,0"/>
<path class="st4" d="M487.4,631.3c0,0-75.6,0-97.8-1.8"/>
<path class="st4" d="M465.3,625.9c1.6-5.4,7-14,12-15.4"/>
<circle class="st4" cx="410.2" cy="598.6" r="8.9"/>
<line class="st4" x1="425.1" y1="545.2" x2="424.1" y2="570.9"/>
<line class="st4" x1="412.9" y1="545.2" x2="412.9" y2="572.9"/>
<line class="st4" x1="400.3" y1="547.2" x2="402.3" y2="569.9"/>
<path class="st4" d="M419.1,496.3c-8.9-7.6-17.8,0-17.8,0"/>
<path class="st4" d="M377.7,134.8c1,2.6,1.6,5.8,1.6,10.1c0,13-10.7,23.6-23.1,23.6s-23.1-8.7-23.1-8.7"/>
<path class="st4" d="M339.8,147.4c3,4.6,17.3,9.5,24.1,0"/>
<line class="st5" x1="331.2" y1="1" x2="338.1" y2="45.4"/>
<line class="st5" x1="351.8" y1="42.6" x2="363.1" y2="9.1"/>
<line class="st5" x1="324.4" y1="48.2" x2="303.6" y2="19.7"/>
<circle class="st3" cx="81.7" cy="172.7" r="1.5"/>
<circle class="st3" cx="103.3" cy="171.1" r="1.5"/>
<circle class="st3" cx="106.2" cy="257" r="1.5"/>
<circle class="st3" cx="107.8" cy="277.1" r="1.5"/>
<circle class="st3" cx="109.2" cy="297.3" r="1.5"/>
<circle class="st3" cx="110.8" cy="317.4" r="1.5"/>
<path class="st4" d="M94.5,162.5c0,14.4,2.8,15.9,7.3,20.4c0,0-3.8,1.1-5.5,4.4"/>
<path class="st4" d="M54,180.1c6.1-0.4,5.6,5.9,5.6,5.9"/>
<path class="st4" d="M60.3,174.9c-5.3-2.8-12-1.5-12,4.9s4,17.6,16.1,9.2l-1.7,41.4"/>
<path class="st4" d="M62,168.1c9.7-8.4,9.4-11.8,8-17.6c0,0,16.1,11.8,22.4-7.1c0,0,8,14.9,17.7,5.6"/>
<path class="st4" d="M110.2,156.4c0,17.1,8.4,17.1,8.4,32.5c0,13-10.7,23.6-23.1,23.6s-23.1-8.7-23.1-8.7"/>
<path class="st4" d="M32.3,385.9c0,38.8,20.2,47.7,13.3,159.4h105.7c13-90.3,3.6-189.9-10.9-214.9c-24.7-42.4-7-46.7-7-68.3
	c0-15.6-32.1-19.3-32.1-43.4"/>
<path class="st4" d="M59,290.2c3.8,13.8,4.5,28.1-3.7,41.6c-2.9,4.8-5.9,9.2-8.8,13.5"/>
<path class="st4" d="M45.5,334.2c14.7,12.8,68.4,22.5,95.9-1"/>
<path class="st4" d="M98.9,342.3c4.8-45.6-2.5-100.2-2.5-100.2c-25.6,0-38.2-6.5-45.5-13.8"/>
<path class="st4" d="M101.2,245.4c8.3-1.5,17.1-5.5,22-21"/>
<path class="st4" d="M123.2,187.3c11,4.4,32.7,1.6,33-13.1c0.3-14.7-11.9-18.3-16.5-18.5c0,0,20.5-12.3,8.9-30.8
	c-8-12.7-19.3-8.4-28.8-3c0,0,1.1-35.3-32-34.7s-30.1,24.9-30.1,24.9S41.1,97.8,24,114s-6.7,35.8-0.3,39.2c0,0-19.6-6.3-21.6,12.4
	c-2.5,23.4,26.5,19,26.5,19s-20.8,9-13.2,24.7c9.2,18.8,33.1,8.3,40.9-2.9"/>
<path class="st4" d="M46.7,234.9C24.3,234.4,6,306.4,2.5,321.5c-2.5,10.7-5.3,30.1,20.6,49.5c7.3,5.5,48.2,38.8,73.3,44.6"/>
<path class="st4" d="M30.1,330.5c7.7,19.2,36.4,39.9,44.6,43.2c8.1,3.3,16.3,2.2,20.5,0.9c3.6-1.1,6.2,2.7,1,5.6
	c-5.1,2.9-8.8,2.9-15,2.9c0,0,10.3,5.8,21.7,6.6"/>
<path class="st4" d="M59.6,260.2c0,23.1-20.4,48.9-24.4,69"/>
<path class="st4" d="M88.4,399.3c0,0,5.1,3.5,21.8,6.6"/>
<path class="st4" d="M89.6,393.9c0,0,6.6,2.7,18.6,5.4"/>
<path class="st4" d="M87.2,405.9c0,0,6.6,2.7,18.6,5.4"/>
<path class="st4" d="M84.2,194.8c3,4.6,17.3,9.5,24.1,0"/>
<path class="st4" d="M66.5,370.2c-5.8,9-9.6,18-10.2,36.8"/>
<path class="st4" d="M115.5,607.5c0-21-5.7-38.3-5.7-55.7"/>
<path class="st4" d="M178.2,620c0,0,2.9,0.4,4.8,2.3"/>
<path class="st4" d="M160.1,615.7c-13-4.2-21.2-6.8-21.3-19.9c-0.2-19.1,2.8-44.1,2.8-44.1"/>
<path class="st4" d="M145.6,626.3h15.8c0,0,2.3-7.5,4-11.2c0.4-0.8,1.3-1.3,2.2-1.1c1.5,0.3,3.7,0.8,5.5,2c1.1,0.7,1.6,2.1,1.1,3.4
	c-0.8,2.3-2,6-2.1,7h12.1c1.7,0,3.4,0.9,4.3,2.4c1.1,2,1.5,5.6,1.6,8.2c0.1,1.7-1.3,3.2-3,3.2h-40"/>
<path class="st4" d="M66,621.2c0-34.7-6-52-6-69.4"/>
<path class="st4" d="M128.4,620c0,0,2.9,0.4,4.8,2.3"/>
<path class="st4" d="M110.3,615.7c-13-4.2-21.2-6.8-21.3-19.9c-0.2-19.1,2.8-44.1,2.8-44.1"/>
<path class="st4" d="M124.5,619.3c-0.8,2.3-2,6-2.1,7h12.1c1.7,0,3.4,0.9,4.3,2.4c1.1,2,1.5,5.6,1.6,8.2c0.1,1.7-1.3,3.2-3,3.2H63
	c-1.7,0-3-1.3-3-3v-7.8c0-1.7,1.3-3,3-3h48.6c0,0,2.3-7.5,4-11.2c0.4-0.8,1.3-1.3,2.2-1.1c1.5,0.3,3.7,0.8,5.5,2
	C124.5,616.7,124.9,618.1,124.5,619.3L124.5,619.3z"/>
<path class="st4" d="M73.2,609.5c3.8,2.4,4.5,6.2,4.5,6.2"/>
<path class="st4" d="M125.5,237.3c12,5.5,22,21.3,22,53.9s9.6,54.1,20.2,93.9c3.4,12.8,7.9,15.9,11.1,18.5c3.6,2.9,1.7,7.6-3.1,4.6
	c-5.4-3.4-10-9.1-10-9.1s1.1,13.8,1.8,29"/>
<path class="st4" d="M153.2,379.2c0,0,14.1-4.7,19.3-9"/>
</svg>
