<svg width="384" height="329" viewBox="0 0 384 329" fill="none" xmlns="http://www.w3.org/2000/svg">
<path d="M99.3906 251.143L99.3906 261.764C99.3906 268.77 105.07 274.45 112.077 274.45L325.122 274.45C332.128 274.45 337.808 268.77 337.808 261.763L337.808 257.09L337.808 239.73L337.808 205.011L337.808 148.258C337.808 141.251 332.128 135.571 325.122 135.571L286.993 135.571" stroke="#82A4A7" stroke-width="1.5" stroke-linecap="round"/>
<path d="M250.158 153.606C250.158 153.606 217.829 215.748 236.258 274.144H302.329C305.829 249.932 305.425 237.341 302.327 214.357C302.327 214.357 294.98 180.247 269.895 167.436L271.634 165.85C271.634 165.85 256.28 159.115 250.158 153.606Z" fill="#3A6D71"/>
<path d="M236.375 274.417C219.618 274.417 212.378 274.417 212.378 274.417L211.299 252.729C212.378 222.188 199.372 223.567 199.372 208.936C199.319 197.244 205.699 184.549 209.428 168.86L209.122 168.638L212.378 170.538L219.618 172.247L227.916 171.304L236.375 167.481L248.48 157.138V157.168C242.152 171.228 222.136 219.43 236.375 274.417Z" fill="#FF8D6E"/>
<path d="M209.833 111.386C210.4 116.841 209.174 121.423 205.359 124.403C205.359 124.403 208.339 124.296 211.488 126.847" stroke="#004952" stroke-width="1.5" stroke-linecap="round" stroke-linejoin="round"/>
<path d="M232.753 106.76C235.55 102.807 243.748 102.408 245.909 109.97C248.069 117.533 244.66 127.547 235.94 121.999L245.112 152.907" stroke="#004952" stroke-width="1.5" stroke-linecap="round" stroke-linejoin="round"/>
<path d="M193.307 108.653C197.429 119.479 192.556 121.38 192.556 131.777C192.556 140.978 200.617 151.943 215.067 150.586C224.07 149.744 230.184 143.645 232.383 140.09" stroke="#004952" stroke-width="1.5" stroke-linecap="round" stroke-linejoin="round"/>
<path d="M202.057 116.079C201.211 116.079 200.525 115.393 200.525 114.547C200.525 113.701 201.211 113.015 202.057 113.015C202.904 113.015 203.59 113.701 203.59 114.547C203.59 115.393 202.904 116.079 202.057 116.079Z" fill="#004952"/>
<path d="M221.241 114.185C220.395 114.185 219.709 113.499 219.709 112.652C219.709 111.806 220.395 111.12 221.241 111.12C222.087 111.12 222.773 111.806 222.773 112.652C222.773 113.499 222.087 114.185 221.241 114.185Z" fill="#004952"/>
<path d="M239.832 110.752C236.76 110.3 235.595 113.449 235.84 115.801" stroke="#004952" stroke-width="1.5" stroke-linecap="round" stroke-linejoin="round"/>
<path d="M229.976 102.232C226.383 100.692 219.763 99.9949 211.58 101.144L207.512 93.7352L205.359 101.711C200.019 102.362 194.356 103.228 191.2 103.734C189.798 103.956 188.564 102.845 188.595 101.428C188.871 88.6095 199.681 71.6692 218.553 69.7001C243.392 67.1181 259.965 84.5411 261.704 101.251C263.298 116.56 255.107 123.869 249.79 124.421" stroke="#004952" stroke-width="1.5" stroke-linecap="round" stroke-linejoin="round"/>
<path d="M243.445 218.708C238.756 226.906 235.577 236.667 236.695 247.417" stroke="#004952" stroke-width="1.5" stroke-linecap="round" stroke-linejoin="round"/>
<path d="M259.154 184.851L267.359 192.719C267.359 192.719 260.111 197.638 252.641 206.058" stroke="#004952" stroke-width="1.5" stroke-linecap="round" stroke-linejoin="round"/>
<path d="M261.914 161.964C264.595 163.282 267.806 164.615 271.637 165.848L263.201 171.265" stroke="#004952" stroke-width="1.5" stroke-linecap="round" stroke-linejoin="round"/>
<path d="M232.699 247.831C224.309 217.399 246.582 159.698 250.16 153.606" stroke="#004952" stroke-width="1.5" stroke-linecap="round" stroke-linejoin="round"/>
<path d="M261.123 83.4327C268.34 80.9886 269.321 63.4967 258.058 56.5015C246.841 49.5369 233.908 54.9002 232.659 64.6307" stroke="#004952" stroke-width="1.5" stroke-linecap="round" stroke-linejoin="round"/>
<path d="M228.417 65.0728C228.417 65.0728 225.888 57.3574 229.137 52.4385" stroke="#004952" stroke-width="1.5" stroke-linecap="round" stroke-linejoin="round"/>
<path d="M246.422 128.359C246.422 128.359 247.548 131.654 256.367 134.144" stroke="#004952" stroke-width="1.5" stroke-linecap="round" stroke-linejoin="round"/>
<path d="M243.063 132.091C243.063 132.091 246.159 137.309 251.652 139.147" stroke="#004952" stroke-width="1.5" stroke-linecap="round" stroke-linejoin="round"/>
<path d="M221.895 134.296C219.711 137.453 208.425 145.444 203.33 133.913" stroke="#004952" stroke-width="1.5" stroke-linecap="round" stroke-linejoin="round"/>
<path d="M274.29 170.593C281.047 173.596 313.019 203.648 302.211 274.022M263.541 232.47V274.022" stroke="#004952" stroke-width="1.5" stroke-linecap="round" stroke-linejoin="round"/>
<path d="M247.393 147.722C251.561 150.288 254.549 154.633 256.288 159.253C258.28 164.539 258.855 170.232 259.414 175.856" stroke="#FF8D6E" stroke-width="1.5" stroke-linecap="round" stroke-linejoin="round"/>
<path d="M193.607 163.021C197.101 159.09 199.752 156.416 204.816 152.915" stroke="#FF8D6E" stroke-width="1.5" stroke-linecap="round" stroke-linejoin="round"/>
<path d="M269.746 223.917C275.706 211.628 275.959 196.702 270.42 184.221C269.416 181.969 268.198 179.739 266.321 178.145C264.444 176.552 261.777 175.694 259.448 176.491C256.874 177.372 255.326 179.954 254.161 182.413C246.277 199.124 246.622 219.489 255.058 235.931" stroke="#FF8D6E" stroke-width="1.5" stroke-linecap="round" stroke-linejoin="round"/>
<path d="M121.855 191.562C129.839 207.077 146.312 238.084 146.312 238.084C148.45 230.829 156.142 200.549 174.952 181.448C177.021 179.012 178.921 176.997 180.576 175.564L178.615 173.005C178.615 173.005 195.21 170.63 200.612 160.501L204.182 164.723L209.913 168.96C206.381 180.046 198.99 199.087 199.044 210.871C199.077 218.217 206.578 222.114 210.014 233.437C212.49 241.595 213.214 254.339 212.972 274.422H193.368C192.717 275.771 185.296 242.007 184.483 243.563C182.124 248.106 179.051 253.515 175.082 259.721C160.211 282.983 132.099 282.737 120.453 256.35C110.363 233.495 102.609 215.137 96.6709 200.542C104.815 200.212 114.132 196.58 121.863 191.57L121.855 191.562Z" fill="#3A6D71"/>
<path d="M182.344 200.716C189.37 211.312 199.384 228.222 200.617 240.059" stroke="#004952" stroke-width="1.5" stroke-linecap="round" stroke-linejoin="round"/>
<path d="M197.633 164.204C192.599 170.41 184.041 171.552 178.624 173.008L189.243 186.883L185.772 187.879" stroke="#004952" stroke-width="1.5" stroke-linecap="round" stroke-linejoin="round"/>
<path d="M177.374 205.162C177.558 203.208 177.849 201.163 178.278 199.056C179.029 195.363 181.221 188.796 182.906 184.851" stroke="#FF8D6E" stroke-width="1.5" stroke-linecap="round" stroke-linejoin="round"/>
<path d="M183.541 211.915C184.092 214.811 183.05 217.899 181.066 220.083C176.898 224.68 170.033 221.24 168.439 215.922C167.474 212.697 168.516 208.95 171.014 206.69C175.281 202.821 182.552 206.705 183.541 211.915V211.915Z" stroke="#FF8D6E" stroke-width="1.5" stroke-linecap="round" stroke-linejoin="round"/>
<path d="M180.391 212.64C180.713 214.34 180.1 216.156 178.936 217.443C176.484 220.148 172.438 218.125 171.504 214.999C170.937 213.099 171.55 210.9 173.021 209.567C175.534 207.292 179.809 209.567 180.391 212.64Z" fill="#FF8D6E"/>
<path d="M113.587 171.542L121.754 191.009L109.702 198.08L98.1491 199.574L90.9783 179.058L113.587 171.542Z" fill="#F6F3EB"/>
<path d="M57.8192 139.676L98.9492 126.944L111.681 168.074L70.551 180.806L57.8192 139.676Z" fill="#FD9C8B"/>
<path d="M59.9644 118.862C58.7754 121.959 55.3011 123.505 52.2043 122.316C49.1075 121.128 47.5609 117.653 48.7499 114.556C49.9389 111.46 53.4132 109.913 56.51 111.102C59.6067 112.291 61.1533 115.765 59.9644 118.862Z" fill="#004952"/>
<path d="M81.3154 114.565L108.245 117.405L92.3209 139.306L81.3154 114.565Z" stroke="#004952" stroke-width="1.5"/>
<path d="M58.3616 95.1207C58.0608 95.9041 57.1819 96.2954 56.3985 95.9946C55.615 95.6938 55.2238 94.8149 55.5246 94.0314C55.8254 93.248 56.7043 92.8567 57.4877 93.1575C58.2712 93.4583 58.6624 94.3372 58.3616 95.1207Z" fill="#FF8D6E"/>
<path d="M129.703 185.579C117.912 196.206 99.1553 204.105 86.6358 198.711" stroke="#004952" stroke-width="1.5" stroke-linecap="round" stroke-linejoin="round"/>
<path d="M210.078 155.521C212.277 176.667 197.748 197.157 199.242 211.477C200.56 224.135 209.664 220.608 211.955 242.589L213.352 274.575" stroke="#004952" stroke-width="1.5" stroke-linecap="round" stroke-linejoin="round"/>
<path d="M246.281 158.44C234.906 172.21 214.434 179.415 200.52 160.682" stroke="#004952" stroke-width="1.5" stroke-linecap="round" stroke-linejoin="round"/>
<path d="M173.168 183.269C155.438 202.201 148.405 231.033 146.336 238.058C146.336 238.058 119.504 187.56 117.742 183.215C115.98 178.871 116.164 174.098 116.286 170.527C116.447 165.869 116.087 159.839 113.559 156.115C111.896 153.664 109.245 154.284 109.904 158.483C110.578 162.82 109.552 168.666 109.552 168.666" stroke="#004952" stroke-width="1.5" stroke-linecap="round" stroke-linejoin="round"/>
<path d="M89.5173 176.259C94.9725 191.613 99.6668 209.161 120.492 256.327C132.138 282.714 160.249 282.96 175.121 259.698C178.308 254.711 180.921 250.228 183.051 246.306" stroke="#004952" stroke-width="1.5" stroke-linecap="round" stroke-linejoin="round"/>
<path d="M200.446 243.722C203.965 262.564 203.965 273.195 203.965 273.195" stroke="#004952" stroke-width="1.5" stroke-linecap="round"/>
<path d="M99.3906 239.592L99.3906 261.625C99.3906 268.631 105.07 274.311 112.077 274.311L129.193 274.311M337.808 204.872L337.808 239.592L337.808 256.951L337.808 261.625C337.808 268.631 332.128 274.311 325.122 274.311L218.599 274.311L188.797 274.311" stroke="#82A4A7" stroke-width="1.5" stroke-linecap="round"/>
<path d="M183.535 240.341L192.715 273.195" stroke="#004952" stroke-width="1.5" stroke-linecap="round"/>
</svg>
