<?xml version="1.0" encoding="UTF-8"?><svg id="a" xmlns="http://www.w3.org/2000/svg" viewBox="0 0 897.36 472.78"><defs><style>.b{fill:#004952;}.c{fill:#ffcfbf;}.d{fill:#ff8d6e;}.e,.f{stroke-linejoin:round;}.e,.f,.g{stroke-linecap:round;}.e,.f,.g,.h{fill:none;stroke-width:2px;}.e,.g{stroke:#004952;}.f,.h{stroke:#ff8d6e;}.g,.h{stroke-miterlimit:10;}</style></defs><g><path class="e" d="M479.14,439.26s5.78-5.63-.45-11.27"/><polygon class="d" points="476.05 32.67 460.21 32.67 460.21 16.83 446.29 16.83 446.29 32.67 430.45 32.67 430.45 46.59 446.29 46.59 446.29 62.43 460.21 62.43 460.21 46.59 476.05 46.59 476.05 32.67"/><g><line class="h" x1="272.47" y1="166.81" x2="262.84" y2="215.33"/><line class="h" x1="230.75" y1="183.85" x2="246.73" y2="214.74"/><line class="h" x1="302.04" y1="196.9" x2="281.77" y2="219.75"/></g><g><path class="f" d="M377.67,294.17c10.26,5.72,19.92,12.52,28.76,20.26"/><path class="f" d="M383.63,318.54l16.81-28.48"/><path class="f" d="M389.79,286.65c2.17,11.5,3.42,23.18,3.74,34.88"/><path class="f" d="M379.96,306.2l25.17-5.57"/></g><g><path class="h" d="M216.38,54.46c10.26,5.72,19.92,12.52,28.76,20.26"/><path class="h" d="M222.34,78.82l16.81-28.48"/><path class="h" d="M228.49,46.93c2.17,11.5,3.42,23.18,3.74,34.88"/><path class="h" d="M218.67,66.48l25.17-5.57"/></g><g><circle class="e" cx="292.8" cy="21.04" r="7.62"/><circle class="e" cx="315.55" cy="28.91" r="7.62"/><path class="e" d="M300,23.53c.8-2.31,3.31-3.53,5.62-2.73,2.31,.8,3.53,3.31,2.73,5.62"/><path class="e" d="M285.75,18.13l-4.46-12.43c-1.85-5.16-8.61-6.36-12.13-2.16h0"/><path class="e" d="M322.84,26.72l-4.46-12.43c-1.85-5.16-8.61-6.36-12.13-2.16h0"/></g><g><path class="e" d="M406.32,86.29l-6.67-2.11c-11.85-3.76-24.98,4.3-29.32,17.98-4.34,13.69,1.76,27.83,13.61,31.59l6.67,2.11"/><path class="e" d="M406.32,86.29c11.85,3.76,17.95,17.9,13.61,31.59-4.34,13.69-17.46,21.74-29.32,17.98-11.85-3.76-17.95-17.9-13.61-31.59,1.08-3.42,2.72-6.49,4.74-9.11"/><path class="e" d="M352.6,69.27l-6.67-2.11c-11.85-3.76-24.98,4.3-29.32,17.98-4.34,13.69,1.76,27.83,13.61,31.59l6.67,2.11"/><path class="e" d="M323.29,87.25c4.34-13.69,17.46-21.74,29.32-17.98,10.12,3.21,16.04,13.98,14.86,25.59"/><path class="e" d="M363.72,106.58c-5.73,10.1-16.74,15.45-26.82,12.25-7.28-2.31-12.39-8.53-14.24-16.16"/><path class="e" d="M396.86,105.75c-1.44,.67-2.66,2.02-3.23,3.8-.98,3.08,.4,6.27,3.06,7.11l10.91,3.46"/><line class="e" x1="411.14" y1="108.95" x2="401.51" y2="105.9"/><path class="e" d="M348.01,88.95c-2.67-.85-5.62,.97-6.6,4.05-.98,3.08,.4,6.27,3.06,7.11l24.64,7.81"/><line class="e" x1="372.65" y1="96.75" x2="354.96" y2="91.15"/><ellipse class="e" cx="409.38" cy="114.53" rx="5.85" ry="5.07" transform="translate(176.53 470.19) rotate(-72.42)"/></g><g><path class="g" d="M433.54,211.63c-1.25-1.67-1.9-3.94-1.62-6.34,.52-4.55,4.14-7.88,8.08-7.43,3.94,.45,6.72,4.5,6.2,9.06-.52,4.55-4.14,7.88-8.08,7.43"/><path class="e" d="M443.01,198.62c-3.92-12.98-15.42-23.05-29.99-26.76-1.74-.44-3.52-.8-5.34-1.05-3.34-.47-6.81-.62-10.34-.4-24.68,1.51-43.62,20.07-42.31,41.44,.98,16.03,6.53,26.16,24.76,41.95l4.8-.32c.71-.05,1.1-.84,.71-1.43l-4.41-6.67,17.57-1.02s2.27,2.36,6.22,5.31c2.19-.1,3.65-.16,4.6-.19,.7-.02,1.12-.78,.77-1.39l-2.06-3.56c4.82-.95,9.39-2.44,13.56-4.4,2.18-1.03,4.26-2.18,6.2-3.46,2.56-1.68,4.9-3.57,6.96-5.65,5.33-5.37,8.81-11.98,9.59-19.45"/><g><circle class="b" cx="419.62" cy="204.25" r="2.25"/><circle class="b" cx="431.3" cy="188.47" r="2.25"/></g><g><circle class="g" cx="437.57" cy="207.82" r=".78"/><circle class="g" cx="441.63" cy="202.34" r=".78"/></g><path class="g" d="M428.58,175.39c1.56-1.78,6.5-2.04,7.63-5.07,.12-.31-.15-.62-.48-.58-7.01,.93-17.9-4.98-16.38,4.22"/><path class="g" d="M394.28,221.03c1.64-1.09,1.85-4.9-1.08-6.39-5.94-3-9.56,5.44-17.34,7.59-.73,.2-.79,1.21-.09,1.49,1.34,.54,3.21,.93,5.12,.19"/><path class="g" d="M389.45,220.58c-.89,.59-2.1,.35-2.69-.55"/><path class="g" d="M359.18,203.95c-3.74,1.16-7.45,1.74-11.28,.54-7.6-2.2-12.02-11.44-6.83-18.02,5.95-7.34,16.79,.3,11.53,8.24"/></g><path class="c" d="M747.48,319.63c-1.78,17.16-12.54,51.03,11.42,103.55-11.45-3.41-36.16-34.46-64.02-37.68l-11.81,8.29c-2.27-4.76-8.13-17.72-20.11-25.14-1.21-5.59-4.46-7.96-6.92-10.12,8.16-34.68-3.75-39.07-2.68-64.54,1.23-29.19,15.82-53.31,16.79-54.02,0,0,2.25-3.77,1.3-7.15,17.39-5.36,26.03-11.15,37.26-10.52,22.15,1.33,43.73,29.87,45.79,48.97,1.96,18.28-.86,27.87-7.02,48.36Z"/><path class="c" d="M507.98,186.74c17.93,50.06,58.53,51.31,71.63,48.07,23.23-5.76,45.47-9.81,62.95-4.98-3.26,10.14-8.99,31.68-11.62,52.91-1.44,11.59-5.03,50.42-5.03,50.42,0,0-9.87-8.14-20.2-15.9-1.71-17.77,6.93-18.36,5.57-36.72-59.29,20.89-104.67-28.61-116.16-56.41-9.26-22.42-9.95-27.73-10-28,0,0,14.56-4.56,22.87-9.39Z"/><line class="e" x1="230.32" y1="236.39" x2="185.67" y2="233.81"/><line class="e" x1="320.63" y1="241.76" x2="248.48" y2="237.06"/><line class="e" x1="294.01" y1="272.92" x2="322.76" y2="248.03"/><path class="e" d="M172.64,233.2l-35.83-2.37c-3.91-.25-7.74,1.17-10.54,3.91l-25.79,25.19s-4.92,4.12-2.39,10.43l58.71,145.08c2.33,5.77,7.76,9.69,13.97,10.1l174.65,11.51c6.18,.41,12.22-2,16.43-6.55l24.63-26.67c1.18-1.27,1.53-3.1,.9-4.72-7.51-19.47-54.02-140.14-56.14-145.45-2.3-5.77-2.6-11.42-10.62-11.9"/><path class="e" d="M355,435.06l-63.16-153.96c-1.3-3.22-4.33-5.41-7.79-5.63l-178.02-11.93"/><line class="e" x1="369.41" y1="422.75" x2="369.41" y2="446.82"/><line class="e" x1="447.41" y1="383.75" x2="391.65" y2="400.28"/><path class="e" d="M444,429.22l-66.83,22.29c-7.27,2.43-14.96,3.34-22.6,2.68l-158.55-14.23c-3.25-.29-5.75-3.02-5.75-6.29v-6.94"/><line class="e" x1="378.41" y1="366.75" x2="456.41" y2="367.34"/><path class="e" d="M272.41,239.75l-28.92,27.27c-3.67,3.46-4.84,8.8-2.97,13.48l61.44,153.13"/><path class="e" d="M173.05,233.81l-28.21,26.6c-3.67,3.46-4.84,8.8-2.97,13.48l61.44,153.13"/><g><path class="e" d="M193.05,157.77c-4.67-.87-6.05,.49-25.82,12.04-20.54,12-40.2,26.92-52.85,19.63-1.76-1.01-1.84-3.54-.22-4.76,12.93-9.72,36.67-28.52,48.95-34.51"/><path class="e" d="M194.6,131.61c3.24-1.96,9.56-5.64,17.14-9.32,9.76-4.74,37.29-16.71,43.77-19.52,.87-.38,1.86-.3,2.66,.19l5.54,3.39c1.83,1.12,1.85,3.76,.05,4.91l-52.95,33.97"/><path class="e" d="M140.89,101.1l15.4-8.96c.84-.49,1.87-.5,2.72-.04l5.44,2.97c1.79,.98,1.95,3.48,.3,4.68l-17.45,12.63"/><path class="e" d="M168.81,147c-22.18-16.48-35.17-27.09-35.17-27.09,0,0-17.51,9.31-27.97,13.79-.63,.27-1.36,.19-1.92-.2-1.06-.74-2.89-2.02-4.56-3.21-1.15-.83-1.12-2.54,.07-3.32,4.95-3.22,13.87-9.19,19.58-13.19"/><path class="e" d="M123.56,110.66l-4.9-27.51c-.36-2.04,1.88-3.53,3.62-2.4l4.7,3.05c.96,.62,1.76,1.47,2.31,2.47l15.59,27.94s38.02,11.41,60.36,28.2c2.38,3.64,3.96,6.5,3.96,6.5,0,0,9.61,7.59,12.92,16.62,.77,2.1-.9,4.29-3.12,4.06-7.28-.78-16.97-3.54-27.87-8.87"/></g><path class="e" d="M244.33,249l-4.12,3.96-8.06-20.16c-1.19-2.81-3.85-4.71-6.9-4.93,0,0-38.84-2.81-45.06-3.16s-9.71,2.92-7.81,7.44"/><path class="e" d="M190.69,225.44l-6.58-.46c-2.62-.18-4.5,2.46-3.48,4.87l5.04,11.74-2.55,2.27"/><path class="e" d="M246.73,243.36l-6.26-16.24c-1.19-2.81-3.85-4.71-6.9-4.93l-46.75-3.28c-2.11-.15-4.22,.33-6.07,1.36l-5.36,3.02c-3.11,1.75-4.41,5.56-3.02,8.85l7.41,17.52"/><path class="g" d="M645.03,414.49c56.58-25.45,110.59-70.21,109.89-137.94-.2-19.66-15.15-45.86-40.98-53.36-24.22-7.04-47.19,28.58-76.07,2.67"/><path class="g" d="M703.75,263.25c2.66,5.23,10.83,22.49,2.66,48.24-7.71,24.31-37.31,52.83-48.54,61.31-11.23,8.47-29.53,1.64-32.08,5.47-1.83,2.75,3.17,5.55,12.6,6.18,.4,.03,.56,.53,.24,.78-5.43,4.19-21.14,11.65-22.66,11.74"/><line class="g" x1="641.51" y1="393.35" x2="617.15" y2="404.67"/><line class="g" x1="645.93" y1="398.15" x2="618.74" y2="412"/><line class="g" x1="654.76" y1="399.76" x2="632.53" y2="412.84"/><path class="g" d="M657.95,365.67c9.19,4.75,24.08,14.81,28.81,40.63"/><path class="e" d="M648.41,113.75c-.02-7.35,3.2-16.67,13.5-19.68,9.33-2.73,22.02,2.8,23.5,23.68,19.55-51.48,74.08,9,37.03,23.04l-5.03,.92c7.26-1.87,23.94-.12,23.94,17.84s-15.01,20.66-23.94,17.2"/><path class="g" d="M670.41,126.75c-.27-.5-4.77-8.44-14-9-8.25-.5-13.42,5.32-14,6"/><path class="g" d="M628.41,152.75c-5.06-1.21-8.69-5.34-9-10-.35-5.17,3.53-8.6,4-9"/><path class="g" d="M623.41,133.75c-1.52-.89-2.76-10.4,6-12,4.88-.89,11.75,1.43,13,2"/><path class="g" d="M630.94,228.09c-5.66-.02-19.66-3.33-51.33,6.72-39.34,12.48-76.75-37.1-71.68-56.94,5.54-21.7,18.16-29.89,11.96-34.7-4.29-3.33-4.99,11.72-11.17,8.87-4.68-2.16-2.12-24.24,.63-35.49"/><path class="g" d="M480.21,128.44c-3.87,10.02-2.04,82.81,26.57,113.84,18.99,20.59,45.21,60.42,118.5,33.81"/><path class="g" d="M493.79,108.97c-.89,6.65-1.24,15.48-.32,25.35"/><path class="g" d="M501.28,111.65c-1.27,4.91-3.33,16-2.22,26.93"/><path class="g" d="M485.94,116.56c-.86,7.28-.71,16.48,2.02,24.67"/><path class="g" d="M640.72,234.81c-8.2,29-11.39,50.94-14.3,89.77"/><path class="g" d="M670.15,239.97c-3.59,7.11-14.47,22.26-16.63,49.19-1.61,19.98,9.74,44.88,3.59,62.97"/><path class="g" d="M658.5,360.68c-36.88-32.21-86.23-73.35-109.09-72.87-49.86,1.04-28.7,84-66.1,122.14-.78,.79-.38,2.13,.71,2.39,30.19,6.98,41.26,9.29,72.78,13.1"/><path class="g" d="M532.41,286.75c-2.54-3.42-41.67-25.16-55.5,16.37-10.57,31.73-7.69,79.44-35.87,102.12-.87,.7-.64,2.06,.4,2.45,7.41,2.78,18.92,5.79,33.98,6.58"/><path class="e" d="M575.73,368.28c23.76,71.76,74.93,120.24,143.37,98.1,18.62-6.02,35.43-26.37,34.69-37.74"/><path class="e" d="M559.41,421.04c-1.81-10.71-4.12-47.84,19.8-72.4"/><path class="g" d="M629.41,143.75c-.6,4.7,2.21,8.94,6,10,4.58,1.28,10.19-2.17,11-8"/><path class="g" d="M677.41,155.75c-3.95,5.24-10.68,7.61-17,6-6.19-1.57-12.9-9.68-14-16"/><path class="g" d="M706.41,174.75c4.75,13.83-1.06,23.7-8,25-5.85,1.09-14.46-3.93-15-16"/><line class="g" x1="718.41" y1="192.75" x2="706.41" y2="174.75"/><path class="g" d="M724.41,188.75c-4.67-4.67-9.33-9.33-14-14"/><path class="g" d="M634.05,111.75c1.13,.51,3.26,1.67,5,4,1.12,1.5,1.7,2.97,2,4"/><path class="g" d="M641.41,111.75c.68,.39,2.03,1.3,3,3,.68,1.18,.91,2.29,1,3"/><path class="g" d="M631.41,151.75c-.05,4.01-.4,12.98-2,20-2.27,9.97-4.73,11.96-4,17,1.04,7.24,7.93,15.64,18,17,8.27,1.11,16.51-2.81,21-10"/><path class="e" d="M644.13,163.9s-.72,5.49-6.26,9.3c3.2,1.43,5.54,3.8,5.54,3.8"/><path class="e" d="M465.41,199.75c9.02-1.08,20.92-3.48,34-9,8.86-3.74,16.2-8.04,22-12"/><path class="e" d="M686.31,214.18l-9.74-33.44c5.92-.36,10.81-7.75,9.82-12.89-.96-4.98-9.82-6.42-11.6-1.98"/><line class="e" x1="644.85" y1="206.85" x2="643.41" y2="222.82"/><path class="g" d="M611.22,287.81c.71,6.1-5.39,13.56-5.39,24.71"/><path class="e" d="M745.39,335.97c-1.58,21.07-7.45,39.92,13.5,87.21-16.87-7.01-35.05-31.84-58.22-36.36"/><path class="e" d="M653.36,189.23c-4.36,4.99-16.19,6.35-21.58-1.19"/><path class="e" d="M676.33,174.75c.12-2.98,3.56-4.3,3.56-4.3"/><circle class="b" cx="652.27" cy="165.88" r="1.5"/><circle class="b" cx="636.1" cy="164.57" r="1.5"/><line class="g" x1="1" y1="466.38" x2="629.33" y2="466.38"/><line class="g" x1="749.99" y1="466.38" x2="896.36" y2="466.38"/><g><path class="e" d="M526.05,451.95s5.78-5.63-.45-11.27"/><path class="e" d="M544.71,433.15c0,10.06,5.68,13.12,5.68,20.54,0,6.32-3.38,12.69-13.07,12.69h-74.84c-5.21,0-6.55-6.26,.99-9.69,15.4-7.01,42.12-17.86,42.12-31.49"/></g><path class="e" d="M451.34,459.85h-35.45c-5.21,0-6.55-6.26,.99-9.69,15.4-7.01,42.12-17.86,42.12-31.49"/></g><path class="e" d="M182.27,146.07s10.86,7.21,14.33,7.94c3.47,.73,7.85-2.74,7.85-2.74"/><path class="e" d="M371.34,187.7s4.82-4.18,11.24-6.59c7.71-2.89,12.53-2.57,12.53-2.57"/></svg>