<svg width="454" height="460" viewBox="0 0 454 460" fill="none" xmlns="http://www.w3.org/2000/svg">
<path d="M262.5 26.4154C328.839 38.1046 384.812 79.8602 415.843 137.107M437.444 196.107C440.43 210.472 442 225.356 442 240.607C442 292.765 423.641 340.635 393.032 378.107M347.362 420.107C312.404 444.08 270.09 458.107 224.5 458.107C182.907 458.107 144.041 446.432 111 426.181M55.5612 377.607C25.1967 340.21 7 292.534 7 240.607C7 227.819 8.10359 215.289 10.2207 203.107M36.5335 131.107C69.7843 74.1522 128.181 33.6733 196.5 24.8928" stroke="#FF8D6E" stroke-width="2" stroke-linecap="round"/>
<g clip-path="url(#clip0_90_3713)">
<path d="M21.24 165.953L31.28 187.893C31.4635 188.187 31.756 188.396 32.0933 188.474C32.4306 188.553 32.7854 188.495 33.08 188.313C33.3319 188.158 33.5227 187.922 33.62 187.643L36.62 179.543L44.77 176.543C45.0896 176.423 45.3509 176.185 45.4998 175.878C45.6487 175.571 45.6738 175.218 45.57 174.893C45.4701 174.571 45.2473 174.301 44.95 174.143L23 164.103C22.7433 163.988 22.4577 163.956 22.1818 164.009C21.9059 164.063 21.6531 164.2 21.4577 164.402C21.2623 164.603 21.1337 164.861 21.0894 165.138C21.0451 165.416 21.0872 165.7 21.21 165.953H21.24Z" stroke="#F8F3EB" stroke-width="2" stroke-linecap="round" stroke-linejoin="round"/>
<path d="M42.7 166.893C42.987 162.788 42.0131 158.694 39.9086 155.158C37.804 151.622 34.6694 148.814 30.9245 147.109C27.1796 145.404 23.0032 144.884 18.9546 145.619C14.906 146.353 11.1784 148.307 8.27123 151.219C5.36402 154.131 3.4159 157.862 2.68778 161.912C1.95965 165.961 2.48629 170.137 4.19715 173.879C5.90801 177.621 8.72141 180.751 12.2606 182.85C15.7998 184.949 19.8957 185.916 24 185.623" stroke="#F8F3EB" stroke-width="2" stroke-linecap="round" stroke-linejoin="round"/>
<path d="M33.7404 162.603C33.2314 160.633 32.2108 158.833 30.7819 157.385C29.353 155.936 27.5667 154.892 25.6039 154.356C23.6412 153.821 21.5718 153.814 19.6055 154.336C17.6392 154.858 15.8459 155.891 14.4073 157.33C12.9688 158.768 11.9361 160.562 11.4139 162.528C10.8918 164.494 10.8987 166.564 11.434 168.526C11.9694 170.489 13.0141 172.275 14.4623 173.704C15.9104 175.133 17.7106 176.154 19.6804 176.663" stroke="#F8F3EB" stroke-width="2" stroke-linecap="round" stroke-linejoin="round"/>
<path d="M25.4204 169.493L30.9404 181.553C31.0112 181.668 31.1131 181.761 31.2344 181.821C31.3557 181.881 31.4915 181.906 31.6262 181.892C31.7608 181.879 31.889 181.828 31.9958 181.745C32.1027 181.662 32.184 181.55 32.2304 181.423L33.8504 176.963L38.3304 175.323C38.465 175.279 38.5838 175.196 38.6724 175.086C38.761 174.975 38.8155 174.841 38.8293 174.7C38.8431 174.559 38.8155 174.417 38.75 174.292C38.6845 174.166 38.5839 174.062 38.4604 173.993L26.4004 168.483C26.3107 168.44 26.2133 168.415 26.1138 168.41C26.0144 168.405 25.915 168.421 25.8217 168.455C25.7283 168.49 25.6429 168.543 25.5705 168.611C25.4981 168.679 25.4402 168.762 25.4004 168.853C25.3541 168.954 25.3318 169.064 25.3353 169.175C25.3388 169.286 25.3679 169.395 25.4204 169.493Z" fill="#FF8D6A"/>
</g>
<g clip-path="url(#clip1_90_3713)">
<path d="M78.4779 385.59C77.9093 384.41 76.7911 384.342 76.4026 384.342C76.0141 384.342 74.2705 384.673 74.2705 386.556C74.2705 387.717 74.9244 388.39 75.6919 388.859L77.1418 389.581C77.9188 390.059 78.5632 390.722 78.5632 391.883C78.5632 393.766 76.8291 394.098 76.4311 394.098C76.0331 394.098 74.9244 394.029 74.3558 392.849" stroke="#F8F3EB" stroke-width="2" stroke-linecap="round" stroke-linejoin="round"/>
<path d="M76.3936 384.342V382.468" stroke="#F8F3EB" stroke-width="2" stroke-linecap="round" stroke-linejoin="round"/>
<path d="M76.3936 395.99V394.117" stroke="#F8F3EB" stroke-width="2" stroke-linecap="round" stroke-linejoin="round"/>
<path d="M70.6126 386.429H65.088C63.695 386.429 62.5674 387.59 62.5674 389.025V422.722C62.5674 424.156 63.695 425.317 65.088 425.317H77.2743" stroke="#F8F3EB" stroke-width="2" stroke-linecap="round" stroke-linejoin="round"/>
<path d="M90.2658 394.429V389.025C90.2658 387.59 89.1382 386.429 87.7452 386.429H81.8984" stroke="#F8F3EB" stroke-width="2" stroke-linecap="round" stroke-linejoin="round"/>
<path d="M94.0657 400.673H86.4659C84.3306 400.673 82.5996 402.455 82.5996 404.654V421.337C82.5996 423.535 84.3306 425.317 86.4659 425.317H94.0657C96.201 425.317 97.9319 423.535 97.9319 421.337V404.654C97.9319 402.455 96.201 400.673 94.0657 400.673Z" stroke="#F8F3EB" stroke-width="2" stroke-linecap="round" stroke-linejoin="round"/>
<path d="M92.1805 407.903H88.3521C87.1771 407.903 86.2295 408.878 86.2295 410.088V420.049C86.2295 421.259 87.1771 422.234 88.3521 422.234H92.1805C93.3555 422.234 94.3031 421.259 94.3031 420.049V410.088C94.3031 408.878 93.3555 407.903 92.1805 407.903Z" fill="#FF8D6A"/>
<path d="M90.266 406.107C91.0719 406.107 91.7253 405.435 91.7253 404.605C91.7253 403.775 91.0719 403.103 90.266 403.103C89.46 403.103 88.8066 403.775 88.8066 404.605C88.8066 405.435 89.46 406.107 90.266 406.107Z" fill="#F8F3EB"/>
</g>
<g clip-path="url(#clip2_90_3713)">
<path d="M382.67 392.693H385.56C386.325 392.695 387.058 393.001 387.597 393.543C388.137 394.085 388.44 394.818 388.44 395.583V407.123C388.44 410.183 387.225 413.119 385.06 415.283C382.896 417.447 379.961 418.663 376.9 418.663C373.84 418.663 370.905 417.447 368.74 415.283C366.576 413.119 365.36 410.183 365.36 407.123V395.583C365.36 394.816 365.665 394.081 366.207 393.539C366.749 392.997 367.484 392.693 368.25 392.693H371.13" stroke="#F8F3EB" stroke-width="2" stroke-linecap="round" stroke-linejoin="round"/>
<path d="M397.1 407.123C397.1 408.264 397.438 409.38 398.072 410.328C398.706 411.277 399.607 412.017 400.662 412.454C401.716 412.89 402.876 413.005 403.995 412.782C405.115 412.559 406.143 412.01 406.95 411.203C407.757 410.396 408.306 409.368 408.529 408.248C408.751 407.129 408.637 405.969 408.2 404.915C407.764 403.86 407.024 402.959 406.075 402.325C405.126 401.691 404.011 401.353 402.87 401.353C401.339 401.353 399.872 401.961 398.79 403.043C397.708 404.125 397.1 405.593 397.1 407.123V407.123Z" stroke="#F8F3EB" stroke-width="2" stroke-linecap="round" stroke-linejoin="round"/>
<path d="M376.9 418.663V420.103C376.9 423.551 378.27 426.857 380.708 429.295C383.146 431.733 386.453 433.103 389.9 433.103C393.348 433.103 396.655 431.733 399.093 429.295C401.531 426.857 402.9 423.551 402.9 420.103V412.893" stroke="#F8F3EB" stroke-width="2" stroke-linecap="round" stroke-linejoin="round"/>
<path d="M399.69 407.123C399.688 407.752 399.873 408.368 400.222 408.892C400.57 409.417 401.066 409.826 401.647 410.068C402.227 410.31 402.867 410.374 403.485 410.253C404.102 410.131 404.67 409.829 405.115 409.385C405.561 408.941 405.865 408.374 405.989 407.757C406.112 407.14 406.05 406.5 405.809 405.918C405.569 405.337 405.161 404.839 404.638 404.489C404.115 404.14 403.5 403.953 402.87 403.953C402.029 403.953 401.221 404.286 400.625 404.881C400.029 405.475 399.693 406.281 399.69 407.123Z" fill="#FF8D6A"/>
</g>
<g clip-path="url(#clip3_90_3713)">
<path d="M419.9 155.513C419.9 158.192 420.964 160.76 422.859 162.655C424.753 164.549 427.322 165.613 430 165.613C432.679 165.613 435.248 164.549 437.142 162.655C439.036 160.76 440.1 158.192 440.1 155.513V155.513C440.1 152.834 439.036 150.265 437.142 148.371C435.248 146.477 432.679 145.413 430 145.413C427.322 145.413 424.753 146.477 422.859 148.371C420.964 150.265 419.9 152.834 419.9 155.513V155.513Z" stroke="#F8F3EB" stroke-width="2" stroke-linecap="round" stroke-linejoin="round"/>
<path d="M448.25 184.373C447.273 180.268 444.94 176.612 441.628 173.996C438.317 171.38 434.22 169.957 430 169.957C425.78 169.957 421.683 171.38 418.372 173.996C415.06 176.612 412.727 180.268 411.75 184.373H448.25Z" stroke="#F8F3EB" stroke-width="2" stroke-linecap="round" stroke-linejoin="round"/>
<path d="M424.45 155.363C424.45 156.835 425.035 158.246 426.076 159.287C427.117 160.328 428.528 160.913 430 160.913C431.472 160.913 432.884 160.328 433.925 159.287C434.965 158.246 435.55 156.835 435.55 155.363C435.55 153.891 434.965 152.479 433.925 151.438C432.884 150.398 431.472 149.813 430 149.813C428.528 149.813 427.117 150.398 426.076 151.438C425.035 152.479 424.45 153.891 424.45 155.363Z" fill="#FF8D6A"/>
</g>
<g clip-path="url(#clip4_90_3713)">
<path d="M235.408 36.8928C236.012 36.8928 236.5 36.429 236.5 35.8542V22.4928C236.479 22.1701 236.33 21.8575 236.076 21.6357L226 12.8928L215.924 21.6357C215.67 21.8575 215.521 22.16 215.5 22.4928V35.8542C215.5 36.429 215.988 36.8928 216.592 36.8928H235.408Z" fill="#FF8D6E"/>
<path d="M244 24.3438V19.1909C243.973 18.6183 243.734 18.0846 243.331 17.6964L226 2.39282L208.669 17.6964C208.275 18.0846 208.037 18.6183 208 19.1909V42.5684C208 43.5777 208.77 44.3928 209.723 44.3928H242.277C243.23 44.3928 244 43.5777 244 42.5684V28.701" stroke="#F8F3EB" stroke-width="1.5" stroke-linecap="round" stroke-linejoin="round"/>
<path d="M247.75 31.6656L244 27.8928L240.25 31.6428" stroke="#F8F3EB" stroke-width="2" stroke-linecap="round" stroke-linejoin="round"/>
</g>
<path d="M251.965 233.983H327.294C327.856 233.98 328.404 233.817 328.871 233.512C329.337 233.208 329.701 232.776 329.916 232.271C330.131 231.767 330.189 231.211 330.081 230.675C329.973 230.139 329.705 229.645 329.31 229.256L312.51 212.917C312.22 212.635 311.87 212.416 311.485 212.278C311.1 212.139 310.689 212.083 310.279 212.114L308.918 212.218L263.555 216.444L290.23 195.65C290.55 195.405 290.813 195.097 291 194.746C291.187 194.394 291.295 194.008 291.317 193.613C291.338 193.218 291.272 192.822 291.124 192.454C290.975 192.085 290.747 191.752 290.455 191.476L278.212 179.613C277.927 179.34 277.587 179.128 277.214 178.991C276.84 178.853 276.441 178.793 276.042 178.815C275.643 178.836 275.253 178.939 274.897 179.116C274.542 179.293 274.228 179.541 273.977 179.843L252.641 205.812L256.93 161.678L257.037 160.363C257.071 159.965 257.014 159.564 256.872 159.189C256.729 158.814 256.503 158.474 256.211 158.193L239.464 141.802C239.065 141.418 238.558 141.157 238.007 141.052C237.456 140.947 236.885 141.003 236.366 141.212C235.847 141.422 235.404 141.776 235.091 142.229C234.778 142.683 234.61 143.217 234.607 143.763V217.07L251.965 233.983Z" fill="#F8F3EB"/>
<path d="M125.839 233.983H201.168L218.526 217.091V143.763C218.524 143.217 218.356 142.683 218.043 142.229C217.73 141.776 217.286 141.422 216.768 141.212C216.249 141.003 215.678 140.947 215.127 141.052C214.576 141.157 214.069 141.418 213.67 141.802L196.88 158.151C196.58 158.429 196.346 158.767 196.196 159.142C196.046 159.517 195.983 159.92 196.011 160.322L196.119 161.636L200.407 205.77L179.071 179.843C178.82 179.532 178.503 179.277 178.143 179.095C177.782 178.913 177.386 178.807 176.98 178.786C176.575 178.764 176.169 178.827 175.79 178.969C175.411 179.112 175.068 179.331 174.783 179.613L162.689 191.528C162.397 191.804 162.169 192.138 162.021 192.506C161.872 192.875 161.807 193.27 161.828 193.665C161.849 194.06 161.957 194.446 162.145 194.798C162.332 195.149 162.594 195.457 162.914 195.702L189.578 216.444L144.205 212.218L142.844 212.114C142.434 212.083 142.023 212.139 141.638 212.278C141.253 212.416 140.904 212.635 140.614 212.917L123.824 229.256C123.429 229.645 123.161 230.139 123.053 230.675C122.945 231.211 123.003 231.767 123.218 232.271C123.433 232.776 123.797 233.208 124.263 233.512C124.729 233.817 125.278 233.98 125.839 233.983Z" fill="#F8F3EB"/>
<path d="M327.488 249.633H126.547C125.984 249.633 125.433 249.795 124.965 250.1C124.497 250.404 124.133 250.837 123.918 251.343C123.703 251.85 123.648 252.407 123.759 252.944C123.87 253.481 124.143 253.974 124.542 254.36L141.267 270.636C141.557 270.919 141.907 271.137 142.292 271.276C142.677 271.415 143.088 271.471 143.497 271.44L144.848 271.335L219.395 264.397L214.356 331.172C214.326 331.552 214.377 331.933 214.506 332.292C214.635 332.651 214.839 332.981 215.104 333.26C215.37 333.539 215.692 333.762 216.05 333.914C216.408 334.067 216.795 334.145 217.186 334.146H234.662C235.053 334.145 235.44 334.067 235.798 333.914C236.156 333.762 236.478 333.539 236.744 333.26C237.009 332.981 237.213 332.651 237.342 332.292C237.471 331.933 237.522 331.552 237.493 331.172L232.453 264.397L309.187 271.346L310.538 271.45C310.947 271.481 311.358 271.425 311.743 271.286C312.128 271.148 312.478 270.93 312.768 270.647L329.493 254.37C329.896 253.985 330.172 253.491 330.285 252.952C330.399 252.413 330.344 251.854 330.129 251.345C329.914 250.837 329.547 250.402 329.077 250.097C328.607 249.792 328.054 249.631 327.488 249.633Z" fill="#F8F3EB"/>
<defs>
<clipPath id="clip0_90_3713">
<rect width="48" height="48" fill="white" transform="translate(0 142.893)"/>
</clipPath>
<clipPath id="clip1_90_3713">
<rect width="48" height="48" fill="white" transform="translate(57 381.893)"/>
</clipPath>
<clipPath id="clip2_90_3713">
<rect width="48" height="48" fill="white" transform="translate(363 388.893)"/>
</clipPath>
<clipPath id="clip3_90_3713">
<rect width="48" height="48" fill="white" transform="translate(406 141.893)"/>
</clipPath>
<clipPath id="clip4_90_3713">
<rect width="48" height="48" fill="white" transform="translate(202 0.892822)"/>
</clipPath>
</defs>
</svg>
